<?xml version="1.0" encoding="UTF-8"?>
<svg xmlns="http://www.w3.org/2000/svg" xmlns:xlink="http://www.w3.org/1999/xlink" width="144.71x" height="992.13px" viewBox="0 0 992.13 992.13">
   <path d="m 144.9312,64.158264 c 0,40.966996 -39.117,65.443996 -76.934998,65.443996 -27.329,0 -67.77099576,-19.899 -67.77099576,-62.603996 0,-24.766 13.27099976,-37.083 24.40199976,-43.064 20.023996,-10.73 46.083996,-8.279 58.743996,0.159 12.134,8.1 18.528998,18.846 19.004998,31.933 0.017,0.4 0.026,0.802 0.026,1.203 0,2.903 -0.409,5.325 -0.894,7.464 -2.443998,-19.636 -18.524998,-30.429 -33.506998,-30.542 -22.105,0 -33.871,19.067 -33.871,32.847 0,20.4 13.926,34.651996 33.867,34.651996 25.504,0 44.020998,-18.361996 44.020998,-43.648996 0,-18.124 -9.916,-34.372 -26.514998,-43.469 -17.651,-9.6530001 -39.075,-9.4610001 -58.866,0.083 9.131,-5.9860001 25.405,-14.40600008 44.931,-14.40600008 39.078998,0 73.362998,29.88200008 73.362998,63.94900008 z" style="fill:#a4234b"/>
 </svg>
